PathFileType	4	(x/y/z)	S10_M20_T58
DataRate	CameraRate	NumFrames	NumMarkers	Units	OrigDataRate	OrigDataStartFrame	OrigNumFrames
240	240	6	51	mm	240	471	538
Frame#	Time	Sternum			R.Acromium			L.Acromium			Top.Head			R.ASIS			L.ASIS			R.PSIS			L.PSIS			R.Great.Tro			L.Great.Tro			R.Iliac.Crest			L.Iliac.Crest			V.Sacral			R.Thigh.Upper.Post			R.Thigh.Lower.Ant			R.Thigh.Lower.Post			R.Thigh.Upper.Ant			R.Knee.Lat			R.Knee.Med			R.Shank.Upper.Post			R.Shank.Lower.Ant			R.Shank.Lower.Post			R.Shank.Upper.Ant			R.Ankle.Lat			R.Ankle.Med			R.Heel.Upper			R.Heel.Med			R.Heel.Lat			R.Toe.Lat			R.Toe.Med			R.Toe.Tip			L.Thigh.Upper.Post			L.Thigh.Lower.Ant			L.Thigh.Lower.Post			L.Thigh.Upper.Ant			L.Knee.Lat			L.Knee.Med			L.Shank.Upper.Post			L.Shank.Lower.Ant			L.Shank.Lower.Post			L.Shank.Upper.Ant			L.Ankle.Lat			L.Ankle.Med			L.Heel.Upper			L.Heel.Med			L.Heel.Lat			L.Toe.Lat			L.Toe.Med			L.Toe.Tip			Cervical.Spine			Back			
		X1	Y1	Z1	X2	Y2	Z2	X3	Y3	Z3	X4	Y4	Z4	X5	Y5	Z5	X6	Y6	Z6	X7	Y7	Z7	X8	Y8	Z8	X9	Y9	Z9	X10	Y10	Z10	X11	Y11	Z11	X12	Y12	Z12	X13	Y13	Z13	X14	Y14	Z14	X15	Y15	Z15	X16	Y16	Z16	X17	Y17	Z17	X18	Y18	Z18	X19	Y19	Z19	X20	Y20	Z20	X21	Y21	Z21	X22	Y22	Z22	X23	Y23	Z23	X24	Y24	Z24	X25	Y25	Z25	X26	Y26	Z26	X27	Y27	Z27	X28	Y28	Z28	X29	Y29	Z29	X30	Y30	Z30	X31	Y31	Z31	X32	Y32	Z32	X33	Y33	Z33	X34	Y34	Z34	X35	Y35	Z35	X36	Y36	Z36	X37	Y37	Z37	X38	Y38	Z38	X39	Y39	Z39	X40	Y40	Z40	X41	Y41	Z41	X42	Y42	Z42	X43	Y43	Z43	X44	Y44	Z44	X45	Y45	Z45	X46	Y46	Z46	X47	Y47	Z47	X48	Y48	Z48	X49	Y49	Z49	X50	Y50	Z50	X51	Y51	Z51	

471	1.9583	1702.4	1254.6	301.98	1566.3	1405.5	450.58	1606.8	1443.9	148.78	1569.3	1729.9	327.16	1653.6	990.12	389.92	1651.6	1007.9	161.38	1451.7	1008.3	308.11	1455	1018.6	227.02	1590.9	911.04	463.93	1576.6	948.3	102.79	1554.7	1066.9	439.42	1583.4	1083.1	136.46	1429.7	980.2	269.75	1679.3	718.96	474.92	1762.3	670.65	439.17	1711.7	635.24	470.01	1730.4	756.3	438.7	1770.7	524.24	433.84	1767	515.53	304.97	1804.7	296.59	450.43	1891.8	269.83	443.08	1839.8	230.64	450.04	1860.6	340.92	443.67	1912.2	136.96	440.86	1922.3	149.47	362.8	1889.1	63.497	391.07	1912.8	44.623	364.48	1901.9	45.168	425.61	2051.4	121.52	483.38	2078.7	143.72	378.36	2115.9	187.75	423.84	1463.7	696.59	106.97	1509.2	597.25	131.78	1435.6	607.74	127.99	1542.7	680.93	111.25	1445.6	510.9	139.29	1454.7	506.37	267.11	1326.3	316.78	144.3	1368	216.13	168.19	1309.9	242.32	158.26	1385.3	290.22	154.2	1306.3	115.73	175.2	1318.7	129.69	265.31	1231.5	93.329	224.26	1238.4	58.335	254.36	1233.7	65.251	189.16	1407.4	41.821	150.88	1437	41.856	257.18	1493	47.776	210.89	1509.2	1477.7	300.75	1422.9	1271.3	269.77
472	1.9625	1707.8	1253.4	302.57	1571.6	1404.4	451.21	1612.4	1442.8	149.42	1574.6	1728.8	327.95	1659.1	988.92	390.22	1656.8	1006.8	161.7	1457.1	1007.3	308.69	1460.3	1017.7	227.6	1596.3	909.88	464.28	1581.4	947.4	103.09	1560.2	1065.7	439.85	1588.8	1082.2	136.99	1435.1	979.3	270.33	1684.2	717.53	475.47	1767.1	668.95	439.72	1716.4	633.7	470.52	1735.4	754.72	439.26	1775.6	523.1	434.13	1771.7	514.15	305.23	1813.4	295.93	450.69	1901	270.67	443.23	1849.6	230.55	450.21	1868.5	341.24	443.86	1923.8	138.09	440.94	1933.5	150.81	362.89	1901.8	64.183	391.22	1925.7	45.784	364.52	1915.1	46.019	425.72	2063.5	124.94	483.07	2090	147.92	377.89	2126.6	192.42	423.4	1467.2	696.48	107.08	1512.4	596.86	131.75	1438.6	607.78	128.1	1546.1	680.35	111.27	1448	510.85	139.31	1457.4	506.17	267.15	1327.7	317.35	144.34	1368.9	216.45	168.11	1311	242.93	158.33	1386.6	290.44	154.1	1306.9	116.19	175.17	1319.3	130.19	265.29	1231.9	94.187	224.22	1238.6	59.201	254.35	1233.9	66.027	189.15	1407.5	41.805	150.83	1437.1	41.924	257.13	1493.2	47.578	210.8	1514.7	1476.7	301.37	1428.3	1270.3	270.3
473	1.9667	1713.3	1252.2	303.16	1576.9	1403.2	451.85	1618	1441.7	150.08	1580	1727.7	328.75	1664.6	987.71	390.51	1662	1005.7	162.02	1462.6	1006.3	309.3	1465.6	1016.8	228.2	1601.8	908.73	464.65	1586.3	946.49	103.41	1565.8	1064.6	440.3	1594.1	1081.2	137.51	1440.4	978.39	270.95	1689.3	716.14	476.01	1771.9	667.3	440.22	1721.1	632.21	471.02	1740.6	753.17	439.77	1780.6	521.98	434.42	1776.4	512.81	305.49	1821.9	295.29	450.92	1910	271.47	443.37	1859.1	230.47	450.34	1876.3	341.51	444.05	1935	139.18	440.98	1944.4	152.12	362.96	1914	64.881	391.33	1938.2	46.935	364.51	1927.9	46.866	425.78	2075.2	128.2	482.74	2100.9	151.92	377.41	2136.9	196.87	422.95	1470.7	696.36	107.22	1515.6	596.46	131.75	1441.7	607.8	128.23	1549.6	679.77	111.32	1450.6	510.8	139.37	1460.2	505.96	267.22	1329.2	317.93	144.41	1369.9	216.77	168.04	1312.2	243.55	158.42	1388	290.66	154	1307.5	116.68	175.15	1319.9	130.72	265.27	1232.3	95.086	224.18	1238.9	60.111	254.33	1234.2	66.84	189.13	1407.6	41.792	150.78	1437.1	41.994	257.07	1493.3	47.379	210.71	1520.2	1475.6	302.01	1433.7	1269.2	270.85
474	1.9708	1718.8	1251.1	303.77	1582.2	1402.1	452.51	1623.6	1440.6	150.75	1585.3	1726.6	329.57	1670.1	986.5	390.81	1667.3	1004.6	162.34	1468.1	1005.3	309.95	1471	1015.9	228.85	1607.4	907.57	465.04	1591.3	945.58	103.75	1571.4	1063.4	440.77	1599.4	1080.2	138.02	1445.8	977.5	271.6	1694.5	714.81	476.54	1776.9	665.7	440.67	1726.1	630.77	471.51	1745.8	751.67	440.23	1785.7	520.89	434.72	1781.2	511.51	305.77	1830.2	294.67	451.12	1918.7	272.21	443.51	1868.4	230.4	450.44	1884	341.73	444.23	1945.8	140.22	441	1954.9	153.36	363	1925.9	65.567	391.39	1950.3	48.052	364.46	1940.2	47.687	425.81	2086.5	131.27	482.39	2111.4	155.72	376.93	2146.9	201.06	422.51	1474.3	696.22	107.39	1518.9	596.06	131.78	1444.9	607.81	128.4	1553.2	679.17	111.4	1453.2	510.73	139.46	1463	505.75	267.31	1330.7	318.54	144.5	1370.9	217.12	167.98	1313.4	244.2	158.54	1389.4	290.89	153.92	1308.2	117.19	175.12	1320.6	131.26	265.25	1232.7	96.026	224.13	1239.2	61.064	254.32	1234.4	67.692	189.12	1407.7	41.783	150.73	1437.2	42.068	257.02	1493.5	47.178	210.62	1525.8	1474.6	302.67	1439.2	1268.2	271.42
475	1.975	1724.3	1249.9	304.38	1587.6	1401	453.17	1629.2	1439.6	151.42	1590.7	1725.4	330.4	1675.7	985.29	391.1	1672.5	1003.5	162.66	1473.6	1004.4	310.64	1476.4	1015	229.53	1613.1	906.43	465.44	1596.2	944.68	104.1	1577	1062.3	441.25	1604.7	1079.2	138.54	1451.2	976.61	272.28	1699.8	713.54	477.06	1782.1	664.18	441.06	1731.1	629.4	471.98	1751.2	750.24	440.63	1790.9	519.83	435.02	1786	510.26	306.05	1838.3	294.07	451.3	1927.2	272.87	443.64	1877.5	230.32	450.51	1891.5	341.89	444.39	1956.3	141.18	440.99	1965	154.54	363.02	1937.2	66.218	391.41	1961.9	49.11	364.37	1952	48.457	425.8	2097.3	134.12	482.02	2121.5	159.26	376.45	2156.5	204.97	422.07	1478	696.06	107.57	1522.2	595.65	131.85	1448.1	607.8	128.6	1556.8	678.57	111.52	1455.9	510.66	139.59	1466	505.53	267.44	1332.3	319.16	144.61	1372	217.48	167.93	1314.7	244.86	158.68	1390.8	291.13	153.84	1308.9	117.73	175.1	1321.3	131.83	265.24	1233.2	97.009	224.08	1239.5	62.063	254.3	1234.7	68.584	189.11	1407.8	41.778	150.68	1437.3	42.143	256.96	1493.6	46.976	210.53	1531.4	1473.5	303.33	1444.7	1267.2	272.01
476	1.9792	1729.8	1248.7	305	1593	1399.8	453.85	1634.9	1438.5	152.11	1596.1	1724.3	331.24	1681.3	984.09	391.4	1677.8	1002.4	162.99	1479.1	1003.4	311.35	1481.8	1014.1	230.25	1618.7	905.29	465.87	1601.2	943.77	104.48	1582.7	1061.2	441.75	1610	1078.2	139.06	1456.6	975.72	272.99	1705.3	712.34	477.55	1787.3	662.72	441.39	1736.3	628.1	472.44	1756.7	748.87	440.98	1796.1	518.82	435.32	1790.9	509.06	306.34	1846.2	293.48	451.45	1935.4	273.44	443.76	1886.3	230.22	450.55	1898.9	342	444.55	1966.4	142.05	440.96	1974.7	155.61	363.01	1948.1	66.813	391.4	1973	50.085	364.24	1963.4	49.154	425.75	2107.7	136.73	481.65	2131.3	162.52	375.97	2165.8	208.55	421.65	1481.8	695.89	107.78	1525.7	595.24	131.95	1451.4	607.77	128.84	1560.5	677.96	111.66	1458.7	510.58	139.75	1469	505.3	267.6	1334	319.81	144.73	1373.1	217.85	167.89	1316.1	245.55	158.84	1392.3	291.38	153.77	1309.6	118.3	175.09	1322	132.42	265.23	1233.7	98.034	224.03	1239.8	63.107	254.29	1235	69.52	189.09	1407.9	41.777	150.63	1437.4	42.219	256.91	1493.8	46.775	210.44	1537.1	1472.5	304.01	1450.2	1266.2	272.62
